<svg width="128" height="128" viewBox="0 0 128 128" fill="none" xmlns="http://www.w3.org/2000/svg">
<path d="M18.3806 76.5C3.58065 62.1 9.54732 41.5 14.3806 33.5C9.38066 62 27.7613 80.5 48.7613 83C43.7613 94 48.2613 105 55.7613 111C23.7613 107 13.3806 83.8333 11.3806 74C13.0473 74.8333 17.1806 77.3 18.3806 76.5Z" fill="url(#paint0_linear_200_197)"/>
<path d="M18.3806 76.5C3.58065 62.1 9.54732 41.5 14.3806 33.5C9.38066 62 27.7613 80.5 48.7613 83C43.7613 94 48.2613 105 55.7613 111C23.7613 107 13.3806 83.8333 11.3806 74C13.0473 74.8333 17.1806 77.3 18.3806 76.5Z" fill="url(#paint1_linear_200_197)"/>
<path d="M17.8806 42C17.0806 19.2 34.8806 8.5 45.3806 7C10.2613 30 34.2613 66 48.7613 83C13.1613 78.6 11.2139 48 14.3806 33.5C14.7139 35.1667 15.8806 39.2 17.8806 42Z" fill="url(#paint2_linear_200_197)"/>
<path d="M17.8806 42C17.0806 19.2 34.8806 8.5 45.3806 7C10.2613 30 34.2613 66 48.7613 83C13.1613 78.6 11.2139 48 14.3806 33.5C14.7139 35.1667 15.8806 39.2 17.8806 42Z" fill="url(#paint3_linear_200_197)"/>
<path d="M109.381 76.5C124.181 62.1 118.214 41.5 113.381 33.5C118.381 62 100 80.5 79 83C68 93.5 74.5 106.5 72 111C104 107 114.381 83.8333 116.381 74C114.714 74.8333 110.581 77.3 109.381 76.5Z" fill="url(#paint4_linear_200_197)"/>
<path d="M109.381 76.5C124.181 62.1 118.214 41.5 113.381 33.5C118.381 62 100 80.5 79 83C68 93.5 74.5 106.5 72 111C104 107 114.381 83.8333 116.381 74C114.714 74.8333 110.581 77.3 109.381 76.5Z" fill="url(#paint5_linear_200_197)"/>
<path d="M109.881 42C110.681 19.2 92.8807 8.5 82.3807 7C117.5 30 93.5 66 79 83C114.6 78.6 116.547 48 113.381 33.5C113.047 35.1667 111.881 39.2 109.881 42Z" fill="url(#paint6_linear_200_197)"/>
<path fill-rule="evenodd" clip-rule="evenodd" d="M46.5 45.8C53.8333 44.8 63.6 49.3 58 66.5C56.8742 68.8108 55.7836 70.96 54.758 72.9811C47.1289 88.0154 43.0998 95.9552 55 110.5C66 122 75.8333 124.667 79.5 123.5C69.1667 118.333 51 102.9 61 82.5C66.6 66.9 66.3333 62.9667 65.5 62.3C67.6667 62.8 70.5 67 64.5 85C60.0297 98.411 67 107.667 72 111C72.8368 108.908 72.9734 108.567 72.9957 108.218C73 108.15 73 108.082 73 108C72.8603 106.318 72.6134 104.537 72.3678 102.765C71.8048 98.7036 71.2479 94.6861 72 92C72.4479 90.4005 72.969 88.6658 73.5176 86.8399C77.256 74.3966 82.2655 57.7223 74 50.8C74.9741 51.287 75.7999 51.9638 76.6652 52.673C79.3532 54.876 82.4222 57.3912 91.5 55.5C84 54 80.5 52 73 45.8C81.5 44.5 84.5 41.5 85.5 36.5C81 41.5 73.6 44.7 68 42.3C62.4 39.9 59 41.3 58 42.3C56.3333 41.4667 52.9 41 46.5 45.8ZM66.1014 46.5697C66.2405 46.0352 65.4866 45.3765 64.4176 45.0985C63.3486 44.8204 62.3693 45.0283 62.2302 45.5628C62.0912 46.0973 62.8451 46.756 63.9141 47.0341C64.9831 47.3121 65.9624 47.1042 66.1014 46.5697Z" fill="#D9D9D9"/>
<path fill-rule="evenodd" clip-rule="evenodd" d="M46.5 45.8C53.8333 44.8 63.6 49.3 58 66.5C56.8742 68.8108 55.7836 70.96 54.758 72.9811C47.1289 88.0154 43.0998 95.9552 55 110.5C66 122 75.8333 124.667 79.5 123.5C69.1667 118.333 51 102.9 61 82.5C66.6 66.9 66.3333 62.9667 65.5 62.3C67.6667 62.8 70.5 67 64.5 85C60.0297 98.411 67 107.667 72 111C72.8368 108.908 72.9734 108.567 72.9957 108.218C73 108.15 73 108.082 73 108C72.8603 106.318 72.6134 104.537 72.3678 102.765C71.8048 98.7036 71.2479 94.6861 72 92C72.4479 90.4005 72.969 88.6658 73.5176 86.8399C77.256 74.3966 82.2655 57.7223 74 50.8C74.9741 51.287 75.7999 51.9638 76.6652 52.673C79.3532 54.876 82.4222 57.3912 91.5 55.5C84 54 80.5 52 73 45.8C81.5 44.5 84.5 41.5 85.5 36.5C81 41.5 73.6 44.7 68 42.3C62.4 39.9 59 41.3 58 42.3C56.3333 41.4667 52.9 41 46.5 45.8ZM66.1014 46.5697C66.2405 46.0352 65.4866 45.3765 64.4176 45.0985C63.3486 44.8204 62.3693 45.0283 62.2302 45.5628C62.0912 46.0973 62.8451 46.756 63.9141 47.0341C64.9831 47.3121 65.9624 47.1042 66.1014 46.5697Z" fill="url(#paint7_linear_200_197)"/>
<defs>
<linearGradient id="paint0_linear_200_197" x1="32.8806" y1="34" x2="45.432" y2="108.897" gradientUnits="userSpaceOnUse">
<stop stop-color="#19CBF4"/>
<stop offset="1" stop-color="#003ADA"/>
</linearGradient>
<linearGradient id="paint1_linear_200_197" x1="55.9188" y1="68.1711" x2="46.3343" y2="105.165" gradientUnits="userSpaceOnUse">
<stop stop-color="#FF8C00"/>
<stop offset="1" stop-color="#E40000"/>
</linearGradient>
<linearGradient id="paint2_linear_200_197" x1="48.8806" y1="41" x2="37.2136" y2="75.8021" gradientUnits="userSpaceOnUse">
<stop stop-color="#19CBF4"/>
<stop offset="1" stop-color="#003ADA"/>
</linearGradient>
<linearGradient id="paint3_linear_200_197" x1="48.8806" y1="41" x2="37.2136" y2="75.8021" gradientUnits="userSpaceOnUse">
<stop stop-color="#FF8C00"/>
<stop offset="1" stop-color="#E40000"/>
</linearGradient>
<linearGradient id="paint4_linear_200_197" x1="94.8806" y1="34" x2="82.3293" y2="108.897" gradientUnits="userSpaceOnUse">
<stop stop-color="#19CBF4"/>
<stop offset="1" stop-color="#003ADA"/>
</linearGradient>
<linearGradient id="paint5_linear_200_197" x1="71.8425" y1="68.1711" x2="81.427" y2="105.165" gradientUnits="userSpaceOnUse">
<stop stop-color="#FF8C00"/>
<stop offset="1" stop-color="#E40000"/>
</linearGradient>
<linearGradient id="paint6_linear_200_197" x1="78.8807" y1="41" x2="90.5477" y2="75.8021" gradientUnits="userSpaceOnUse">
<stop stop-color="#FF8C00"/>
<stop offset="1" stop-color="#E40000"/>
</linearGradient>
<linearGradient id="paint7_linear_200_197" x1="88.1448" y1="78.5199" x2="76.7487" y2="116.821" gradientUnits="userSpaceOnUse">
<stop stop-color="#FF8C00"/>
<stop offset="1" stop-color="#E40000"/>
</linearGradient>
</defs>
</svg>
